<svg width="512" height="512" viewBox="0 0 512 512" fill="none" xmlns="http://www.w3.org/2000/svg">
  <!-- Фон -->
  <rect width="512" height="512" fill="#0F172A"/>
  
  <!-- Логотип onAI (зеленая кнопка включена) -->
  <g transform="translate(106, 156)">
    <!-- Контур кнопки (рамка) -->
    <path
      fillRule="evenodd"
      clipRule="evenodd"
      d="M226 0H110C49.25 0 0 49.84 0 111.4C0 172.96 49.25 222.8 110 222.8H226C286.75 222.8 336 172.96 336 111.4C336 49.84 286.75 0 226 0ZM226 185.5H110C69.3 185.5 36.5 152.3 36.5 111.4C36.5 70.5 69.3 37.3 110 37.3H226C266.7 37.3 299.5 70.5 299.5 111.4C299.5 152.3 266.7 185.5 226 185.5Z"
      fill="#00ff00"
    />
    
    <!-- Внутренний круг (справа - включено) -->
    <circle
      cx="226"
      cy="111.4"
      r="48"
      fill="#00ff00"
      stroke="#00ff00"
      strokeWidth="3"
    />
    
    <!-- Свечение -->
    <circle
      cx="226"
      cy="111.4"
      r="80"
      fill="#00ff00"
      opacity="0.3"
      style="filter: blur(20px);"
    />
  </g>
</svg>

