<svg width="65" height="35" viewBox="0 0 65 35" fill="none" xmlns="http://www.w3.org/2000/svg">
<path d="M46.6206 1H19.3577C10.3337 1 3 8.45857 3 17.6362C3 26.8139 10.3337 34.2724 19.3577 34.2724H46.6206C55.6447 34.2724 62.9784 26.8139 62.9784 17.6362C62.9784 8.45857 55.6447 1 46.6206 1ZM46.6206 28.727H19.3577C13.3326 28.727 8.45258 23.7639 8.45258 17.6362C8.45258 11.5085 13.3326 6.54541 19.3577 6.54541H46.6206C52.6457 6.54541 57.5258 11.5085 57.5258 17.6362C57.5258 23.7639 52.6457 28.727 46.6206 28.727Z" fill="black"/>
<path d="M46.9009 9.31811C42.3753 9.31811 38.722 13.0335 38.722 17.6362C38.722 22.2389 42.3753 25.9543 46.9009 25.9543C51.4265 25.9543 55.0798 22.2389 55.0798 17.6362C55.0798 13.0335 51.4265 9.31811 46.9009 9.31811Z" fill="#00FFB3"/>
<path d="M19.3574 1.34961H46.6211C55.4459 1.34986 62.6277 8.64617 62.6279 17.6357C62.6279 26.6255 55.4461 33.9226 46.6211 33.9229H19.3574C10.5324 33.9227 3.34961 26.6256 3.34961 17.6357C3.34986 8.64613 10.5325 1.34978 19.3574 1.34961ZM19.3574 6.19531C13.1338 6.19549 8.10279 11.3207 8.10254 17.6357C8.10254 23.951 13.1336 29.077 19.3574 29.0771H46.9014C53.1251 29.0769 58.1562 23.951 58.1562 17.6357C58.156 11.3207 53.1249 6.19557 46.9014 6.19531H19.3574ZM46.9014 9.66797C51.2278 9.66822 54.7292 13.2211 54.7295 17.6357C54.7295 22.0506 51.2279 25.6042 46.9014 25.6045C42.5746 25.6045 39.0723 22.0507 39.0723 17.6357C39.0725 13.221 42.5747 9.66797 46.9014 9.66797Z" stroke="#00FFB3" stroke-width="0.7"/>
</svg>